<svg xmlns="http://www.w3.org/2000/svg" xmlns:xlink="http://www.w3.org/1999/xlink" viewBox="0 0 91.52604748510547 91.52604748510547" height="91.52604748510547" width="91.52604748510547" data-background-color="#e9e2da" preserveAspectRatio="xMidYMid meet" id="tight-bounds"><g><svg viewBox="0 0 91.52604748510547 91.52604748510547" height="91.52604748510547" width="91.52604748510547"><g><svg viewBox="0 0 91.52604748510547 91.52604748510547" height="91.52604748510547" width="91.52604748510547"><g id="textblocktransform"><svg viewBox="0 0 91.52604748510547 91.52604748510547" height="91.52604748510547" width="91.52604748510547" id="textblock"><g><svg viewBox="0 0 91.52604748510547 91.52604748510547" height="91.52604748510547" width="91.52604748510547"><g><svg viewBox="0 0 91.52604748510547 91.52604748510547" height="91.52604748510547" width="91.52604748510547"><g><svg/></g><g id="icon-0"><svg viewBox="0 0 91.52604748510547 91.52604748510547" height="91.52604748510547" width="91.52604748510547"><g><path d="M0 0" data-fill-palette-color="accent" fill="#1b2141" stroke="transparent"/></g><g transform="matrix(1,0,0,1,23.346259672994552,16.77944245531636)"><svg viewBox="0 0 44.83352813911636 57.967162574472745" height="57.967162574472745" width="44.83352813911636"><g><svg xmlns="http://www.w3.org/2000/svg" data-name="Layer 1" viewBox="13 0 98.99900817871094 128" x="0" y="0" height="57.967162574472745" width="44.83352813911636" class="icon-b-0" data-fill-palette-color="accent" id="b-0"><rect width="26" height="26" x="77" rx="8" ry="8" fill="#1b2141" data-fill-palette-color="accent"/><rect width="26" height="26" x="77" y="30" rx="8" ry="8" fill="#1b2141" data-fill-palette-color="accent"/><path d="M81.083 84.963v-8.288a9.629 9.629 0 1 1 19.257 0v7.257A7.98 7.98 0 0 0 103 78V68a8.023 8.023 0 0 0-8-8H85a8.023 8.023 0 0 0-8 8v10a8.02 8.02 0 0 0 4.083 6.963" fill="#1b2141" data-fill-palette-color="accent"/><path d="M106.272 94.148a6 6 0 0 0-0.75 0.049 5.85 5.85 0 0 0-4.923-2.096 5.78 5.78 0 0 0-4.26-2.506v-12.92a5.629 5.629 0 1 0-11.256 0v16.352l-0.031-0.036A5.77 5.77 0 0 0 77 92.4c-3.677 3.107-0.916 8.247 0.911 11.648a23 23 0 0 1 1.201 2.431c0.531 1.435 1.08 2.917 1.668 4.252a35.4 35.4 0 0 0 3.954 7.843c1.45 2.268 2.324 3.637 2.324 6.663A2.77 2.77 0 0 0 89.83 128h15.122a2.77 2.77 0 0 0 2.776-2.763 11.8 11.8 0 0 1 1.44-3.606c1.258-2.494 2.822-5.6 2.822-9.279v-5.51q0.009-0.12 0.009-0.241v-6.913a5.643 5.643 0 0 0-5.728-5.54M63 3H21a8.024 8.024 0 0 0-8 8v4a8.024 8.024 0 0 0 8 8h42a8.023 8.023 0 0 0 8-8v-4a8.023 8.023 0 0 0-8-8M38.084 15H29a2 2 0 0 1 0-4h9.084a2 2 0 0 1 0 4M55 15h-9.084a2 2 0 0 1 0-4H55a2 2 0 0 1 0 4M63 33H21a8.024 8.024 0 0 0-8 8v4a8.024 8.024 0 0 0 8 8h42a8.023 8.023 0 0 0 8-8v-4a8.023 8.023 0 0 0-8-8M38.084 45H29a2 2 0 0 1 0-4h9.084a2 2 0 0 1 0 4M55 45h-9.084a2 2 0 0 1 0-4H55a2 2 0 0 1 0 4M63 63H21a8.024 8.024 0 0 0-8 8v4a8.024 8.024 0 0 0 8 8h42a8.023 8.023 0 0 0 8-8v-4a8.023 8.023 0 0 0-8-8M38.084 75H29a2 2 0 0 1 0-4h9.084a2 2 0 0 1 0 4M55 75h-9.084a2 2 0 0 1 0-4H55a2 2 0 0 1 0 4" fill="#1b2141" data-fill-palette-color="accent"/></svg></g></svg></g></svg></g></svg></g></svg></g></svg></g></svg></g></svg></g><defs/></svg>